<svg width="16" height="16" viewBox="0 0 16 16" fill="none" xmlns="http://www.w3.org/2000/svg">
<mask id="mask0_907_23422" style="mask-type:alpha" maskUnits="userSpaceOnUse" x="0" y="0" width="16" height="16">
<rect width="16" height="16" fill="#D9D9D9"/>
</mask>
<g mask="url(#mask0_907_23422)">
<path d="M10.6667 9C10.9556 9 11.1944 8.90556 11.3833 8.71667C11.5722 8.52778 11.6667 8.28889 11.6667 8C11.6667 7.71111 11.5722 7.47222 11.3833 7.28333C11.1944 7.09444 10.9556 7 10.6667 7C10.3778 7 10.1389 7.09444 9.95 7.28333C9.76111 7.47222 9.66667 7.71111 9.66667 8C9.66667 8.28889 9.76111 8.52778 9.95 8.71667C10.1389 8.90556 10.3778 9 10.6667 9ZM8.66667 11.3333C8.3 11.3333 7.98611 11.2028 7.725 10.9417C7.46389 10.6806 7.33333 10.3667 7.33333 10V6C7.33333 5.63333 7.46389 5.31944 7.725 5.05833C7.98611 4.79722 8.3 4.66667 8.66667 4.66667H13.3333C13.7 4.66667 14.0139 4.79722 14.275 5.05833C14.5361 5.31944 14.6667 5.63333 14.6667 6V10C14.6667 10.3667 14.5361 10.6806 14.275 10.9417C14.0139 11.2028 13.7 11.3333 13.3333 11.3333H8.66667ZM3.33333 14C2.96667 14 2.65278 13.8694 2.39167 13.6083C2.13056 13.3472 2 13.0333 2 12.6667V3.33333C2 2.96667 2.13056 2.65278 2.39167 2.39167C2.65278 2.13056 2.96667 2 3.33333 2H12.6667C13.0333 2 13.3472 2.13056 13.6083 2.39167C13.8694 2.65278 14 2.96667 14 3.33333H8.66667C7.87778 3.33333 7.23611 3.58056 6.74167 4.075C6.24722 4.56944 6 5.21111 6 6V10C6 10.7889 6.24722 11.4306 6.74167 11.925C7.23611 12.4194 7.87778 12.6667 8.66667 12.6667H14C14 13.0333 13.8694 13.3472 13.6083 13.6083C13.3472 13.8694 13.0333 14 12.6667 14H3.33333Z" fill="#5A5A5A"/>
</g>
</svg>
