<svg width="26" height="26" viewBox="0 0 26 26" fill="none" xmlns="http://www.w3.org/2000/svg">
<path d="M16.8242 23H9.17584C8.67038 23 8.25276 22.5828 8.25276 22.0779V17.753H3.92308C3.41762 17.753 3 17.3359 3 16.831V9.16905C3 8.66414 3.41762 8.24698 3.92308 8.24698H7.41208C11.5 8.24698 9.5 8.5 10.0986 9.16905C8.05296 9.38754 9.91482 9.71941 9.5 9.91974C9.28648 10.0229 10.5948 10.0911 6.01096 10.0911H4.84612V15.8869H9.15382C9.65928 15.8869 10.0769 16.3041 10.0769 16.809V21.112H15.8791V16.809C15.8791 16.3041 16.2967 15.8869 16.8022 15.8869H21.1099V10.0911H16.8242C16.3187 10.0911 15.9011 9.67395 15.9011 9.16905V4.84413H10.0989V9.14709C10.0989 9.65199 9.68125 10.0692 9.1758 10.0692C8.67034 10.0692 8.25272 9.65199 8.25272 9.14709V3.92206C8.25272 3.41716 8.67034 3 9.1758 3H16.8461C17.3516 3 17.7692 3.41716 17.7692 3.92206V8.22503H22.0769C22.5824 8.22503 23 8.64219 23 9.14709V16.809C23 17.3139 22.5824 17.7311 22.0769 17.7311H17.7692V22.034C17.7692 22.5827 17.3516 23 16.8242 23Z" fill="#FDB913"/>
</svg>
