<svg width="24" height="24" viewBox="0 0 24 24" fill="none" xmlns="http://www.w3.org/2000/svg">
<path d="M12.9104 2C12.242 2 11.5784 2.03368 10.9271 2.09357C8.90096 2.27857 5.92275 2.77578 4.45148 4.34575C4.41205 4.38828 4.37946 4.4372 4.34208 4.4815C3.47578 4.75438 2.59817 5.04639 1.86493 5.51419C0.167657 6.59545 -0.184558 8.05413 0.0781438 9.58653C0.391603 11.4191 1.58028 13.3584 2.39342 14.8787C3.6795 17.2847 5.16003 19.5461 7.45164 20.9545C7.88308 21.2203 8.24764 21.3688 8.56007 21.4276C8.96235 21.6774 9.38041 21.8738 9.7851 21.9532C10.1877 22.0329 10.5657 22.006 10.9251 21.9092C11.6178 22.0177 12.2989 21.8486 12.9084 21.233C14.38 20.4612 15.3519 19.4901 16.4597 18.456C18.4526 16.5929 22.7967 14.1915 23.1253 11.0169C23.1493 10.7808 23.1534 10.559 23.1462 10.346C23.8335 9.2194 24.2035 8.04066 23.8836 6.90659C23.6802 6.18859 23.2004 5.48833 22.3533 4.8327C19.6988 2.77543 16.2601 2 12.9423 2H12.9104Z" fill="url(#paint0_linear_1378_74918)"/>
<path d="M12.0343 6C12.7016 6.16573 13.3884 6.28146 14.0315 6.50883C15.0854 6.88217 15.9494 7.5041 16.415 8.52177C16.7564 9.26815 16.7736 10.0416 16.4946 10.8016C16.3538 11.1854 16.3606 11.5463 16.4826 11.912C16.6188 12.32 16.7901 12.7171 16.9415 13.1204C17.0713 13.4667 16.9942 13.6179 16.6191 13.6601C16.3131 13.6947 16.1146 13.7587 16.0978 14.1102C16.0858 14.3541 15.8842 14.5312 15.6107 14.4454C15.0258 14.2625 14.4408 14.0692 13.8816 13.8261C13.5117 13.6653 13.4275 13.4228 13.5361 13.1818C13.6463 12.9367 14.0651 12.7224 14.3554 12.8035C14.7874 12.9245 15.2063 13.0864 15.6349 13.2184C15.853 13.2856 16.0776 13.3525 16.304 13.3714C16.5591 13.3929 16.6634 13.2341 16.5261 13.0277C16.0861 12.3682 15.4691 11.8934 14.7137 11.5995C14.5818 11.5483 14.3554 11.6143 14.2205 11.6966C14.0027 11.8297 13.821 12.0179 13.6298 12.1885C13.3113 12.4732 12.9325 12.6401 12.5085 12.5267C12.03 12.3988 11.5491 12.2386 11.1171 12.0106C10.8843 11.8879 10.7356 11.6038 10.5777 11.3747C10.4642 11.2098 10.4089 11.0095 10.3079 10.8356C10.1424 10.5507 9.89856 10.3867 9.5348 10.4335C9.17257 10.48 8.92262 10.6731 8.83451 10.9985C8.64666 11.6931 8.77913 12.3566 9.21662 12.9323C9.40661 13.1827 9.69388 13.3827 9.97473 13.5476C10.1051 13.624 10.3611 13.6179 10.4918 13.5423C10.5765 13.4935 10.564 13.2484 10.5468 13.0963C10.526 12.9157 10.3599 12.6889 10.5982 12.5915C10.7555 12.527 11.0161 12.5677 11.1765 12.6532C11.8134 12.9922 11.9887 13.5069 11.7219 14.1372C11.2092 15.3488 10.6931 16.559 10.1806 17.7706C10.1231 17.9066 10.069 18.0017 9.87378 18C8.6124 17.9898 7.35071 17.995 6 17.995C6.15419 17.9287 6.23037 17.893 6.30869 17.8627C7.44616 17.4257 8.5041 15.9885 8.30462 14.9295C8.21162 14.4358 8.02071 13.9535 7.82736 13.4833C7.50735 12.7044 7.08271 11.9597 6.82205 11.1651C6.38609 9.83368 6.80217 8.65755 7.71906 7.60238C8.47534 6.73242 9.39345 6.16195 10.5927 6.04332C10.6325 6.03925 10.6701 6.01483 10.709 6H12.0343Z" fill="white"/>
<path d="M12.8227 15.9985C13.1828 16.9214 13.8619 17.6175 14.9156 17.9766H12.0526C11.9694 17.247 12.0716 16.5388 12.2649 15.8453C12.3824 15.424 12.5593 15.0172 12.7211 14.6081C12.7985 14.4115 12.9661 14.2935 13.1886 14.3243C13.9745 14.4334 14.7605 14.5459 15.5415 14.6831C15.7658 14.7227 15.8279 14.9529 15.6529 15.0637C15.3375 15.2643 15.3237 15.5478 15.3185 15.8517C15.3105 16.3015 15.2041 16.4318 14.7332 16.3687C14.0874 16.282 13.4523 16.1238 12.8227 15.9985Z" fill="white"/>
<defs>
<linearGradient id="paint0_linear_1378_74918" x1="11.2983" y1="22.0598" x2="12.388" y2="1.93963" gradientUnits="userSpaceOnUse">
<stop stop-color="#A63293"/>
<stop offset="0.02" stop-color="#A63293"/>
<stop offset="0.392435" stop-color="#CA2F7B"/>
<stop offset="0.39248" stop-color="#CA2F7B"/>
<stop offset="0.401499" stop-color="#CA2F7B"/>
<stop offset="1" stop-color="#EE2E64"/>
</linearGradient>
</defs>
</svg>
