<svg width="24" height="24" viewBox="0 0 24 24" fill="none" xmlns="http://www.w3.org/2000/svg">
<path d="M12.9103 2C12.2423 2.00106 11.5783 2.03329 10.9271 2.09319C8.90091 2.27854 5.92272 2.77543 4.4518 4.34545C4.41202 4.38763 4.37975 4.43689 4.34203 4.48119C3.47573 4.75408 2.59811 5.0461 1.86488 5.51356C0.167954 6.59485 -0.184587 8.05394 0.0781144 9.5864C0.391572 11.419 1.58024 13.358 2.39337 14.8784C3.67944 17.2848 5.15998 19.5466 7.45158 20.9543C7.88301 21.2201 8.24793 21.369 8.56035 21.4275C8.96229 21.6777 9.38067 21.8737 9.78501 21.9531C10.1876 22.0328 10.5656 22.0062 10.9253 21.9091C11.6181 22.0179 12.2992 21.8488 12.9083 21.2336C14.3799 20.461 15.3518 19.4903 16.4596 18.4565C18.4528 16.5934 22.7966 14.1916 23.1252 11.0171C23.1495 10.7804 23.1533 10.5589 23.1461 10.3459C23.8334 9.21923 24.2037 8.04049 23.8834 6.90639C23.68 6.18837 23.2006 5.48769 22.3535 4.83239C19.6991 2.77507 16.26 2 12.9422 2H12.9103Z" fill="url(#paint0_linear_1396_73121)"/>
<path d="M9.38514 15.1713C9.75531 14.5513 10.2708 14.2147 10.8817 14.0296C11.5463 13.8281 12.2262 13.8118 12.9089 13.8923C13.4735 13.9588 14.0096 14.1203 14.4735 14.4808C14.7012 14.6576 14.9197 14.8476 15.1727 15.0571C15.4213 14.8429 15.6559 14.4838 15.7335 14.0167C15.8295 13.4388 15.6243 13.0204 15.1372 12.738C14.8269 12.5576 14.5201 12.3703 14.2174 12.1763C13.712 11.8519 13.2933 11.4425 13.179 10.8033C13.0141 9.88242 13.3497 8.45809 14.3383 7.86856C14.5546 7.7398 14.75 7.77389 14.864 7.95826C14.9811 8.1476 14.9213 8.35878 14.6987 8.50046C14.2167 8.8073 14.008 9.28727 13.9099 9.83939C13.8972 9.91221 13.8921 9.98669 13.8792 10.0595C13.769 10.6682 13.9593 11.1419 14.4669 11.466C14.8 11.6788 15.142 11.8771 15.4748 12.0906C15.8494 12.3312 16.1898 12.6172 16.3523 13.0614C16.6217 13.7983 16.4574 14.4828 16.0499 15.1067C15.8884 15.354 15.6496 15.545 15.4583 15.7731C15.3912 15.8532 15.3171 15.9697 15.3209 16.0663C15.3842 17.6592 14.616 18.7359 13.3716 19.5135C13.2158 19.6108 13.1505 19.7058 13.1654 19.8961C13.1822 20.1096 13.1708 20.3268 13.1559 20.5413C13.1388 20.7952 13.003 20.9378 12.7601 20.9451C12.4121 20.956 12.0634 20.9554 11.7154 20.9458C11.452 20.9381 11.3104 20.7872 11.2981 20.5121C11.2883 20.297 11.2864 20.0808 11.2971 19.866C11.3054 19.7048 11.2528 19.6118 11.1144 19.5314C10.6188 19.2437 10.1882 18.8707 9.83796 18.4013C9.33732 17.7297 9.09635 16.9717 9.15746 16.1183C9.16855 15.9608 9.12295 15.8575 9.00198 15.7612C8.4339 15.3087 8.08399 14.7138 7.99279 13.9687C7.90318 13.2395 8.1888 12.6738 8.74802 12.2647C9.10205 12.0055 9.48805 11.7943 9.85791 11.5587C10.7344 10.9992 10.6755 10.5312 10.5254 9.70103C10.4301 9.17241 10.1692 8.73978 9.7037 8.45842C9.52004 8.34753 9.49059 8.14628 9.59129 7.97481C9.69863 7.79243 9.87913 7.73682 10.071 7.84241C10.5235 8.09199 10.8301 8.48655 11.0384 8.96387C11.2696 9.49382 11.3579 10.0582 11.3092 10.6365C11.2591 11.2329 10.9323 11.6662 10.4833 12.0052C10.2879 12.1525 10.0761 12.276 9.86963 12.4064C9.70528 12.51 9.53935 12.6109 9.37089 12.7063C8.52953 13.1829 8.58114 13.9432 8.95385 14.6205C9.06025 14.8138 9.22618 14.9714 9.38514 15.1713Z" fill="white"/>
<path d="M18.482 8.06283C18.3896 8.4842 18.2819 8.98767 18.1673 9.48915C18.1495 9.56661 18.1084 9.64108 18.0659 9.70861C17.7005 10.2905 16.6039 10.8006 15.812 10.2683C15.475 10.0419 15.2727 9.72748 15.2319 9.30709C15.1948 8.92412 15.1673 8.54015 15.1245 8.15783C15.0732 7.70104 14.8306 7.3495 14.5396 7.02247C14.2695 6.7186 13.9848 6.42235 13.7565 6.08571C13.3316 5.45911 13.4234 4.93082 14 4.45913C14.6555 3.92256 15.3927 3.90766 16.1426 4.15195C17.3962 4.56042 18.0612 5.51372 18.3057 6.8222C18.3763 7.19889 18.4149 7.58253 18.482 8.06283Z" fill="white"/>
<path d="M6 8.03628C6.0874 7.03762 6.19031 6.12205 6.72357 5.35675C7.43921 4.32996 8.42371 3.87879 9.63588 4.05721C10.1169 4.12771 10.5127 4.40543 10.799 4.8182C11.0599 5.19456 11.0219 5.60302 10.7806 5.96349C10.5545 6.30212 10.2657 6.59407 10.0232 6.92143C9.80782 7.21173 9.59345 7.50865 9.4272 7.83006C9.33473 8.00946 9.3322 8.24349 9.30655 8.45533C9.26475 8.80058 9.27425 9.15741 9.19636 9.49239C9.00921 10.2987 8.23023 10.5963 7.55321 10.4606C7.35467 10.4205 7.16594 10.3176 6.97879 10.2295C6.51045 10.0094 6.27581 9.59566 6.17258 9.09551C6.095 8.72014 6.04813 8.33749 6 8.03628Z" fill="white"/>
<defs>
<linearGradient id="paint0_linear_1396_73121" x1="11.2984" y1="22.0599" x2="12.3881" y2="1.93915" gradientUnits="userSpaceOnUse">
<stop stop-color="#A63293"/>
<stop offset="0.02" stop-color="#A63293"/>
<stop offset="0.392435" stop-color="#CA2F7B"/>
<stop offset="0.39248" stop-color="#CA2F7B"/>
<stop offset="0.401499" stop-color="#CA2F7B"/>
<stop offset="1" stop-color="#EE2E64"/>
</linearGradient>
</defs>
</svg>
