<svg width="24" height="24" viewBox="0 0 24 24" fill="none" xmlns="http://www.w3.org/2000/svg">
<path d="M12.9103 2C12.2423 2 11.5783 2.03298 10.9271 2.09323C8.90091 2.27823 5.92272 2.77546 4.4518 4.34513C4.41201 4.38765 4.37975 4.43693 4.34203 4.48123C3.47573 4.75412 2.59811 5.04614 1.86488 5.5136C0.167954 6.59489 -0.184587 8.05396 0.0781144 9.58641C0.391572 11.419 1.58024 13.358 2.39337 14.8784C3.67944 17.2848 5.15997 19.5466 7.45158 20.9543C7.88301 21.2201 8.24792 21.3686 8.56035 21.4275C8.96229 21.6777 9.38067 21.8737 9.78501 21.9531C10.1876 22.0328 10.5656 22.0062 10.9253 21.9091C11.6181 22.0179 12.2992 21.8488 12.9083 21.2336C14.3799 20.461 15.3518 19.4903 16.4596 18.4562C18.4528 16.593 22.7966 14.1912 23.1252 11.0172C23.1495 10.7804 23.1533 10.5586 23.1461 10.3459C23.8334 9.21891 24.2037 8.04018 23.8834 6.90643C23.68 6.18841 23.2006 5.48773 22.3535 4.83243C19.6991 2.77511 16.26 2 12.9422 2H12.9103Z" fill="url(#paint0_linear_1492_76558)"/>
<path d="M15.1769 16.477C15.2143 16.3682 15.1857 16.1682 15.1066 16.1006C14.8743 15.9016 14.6137 15.7275 14.3406 15.5891C14.249 15.5427 14.047 15.5932 13.9706 15.672C13.8948 15.7501 13.8494 15.9908 13.9016 16.0379C14.1857 16.2965 14.5042 16.5174 14.8359 16.7702C14.9894 16.6457 15.1409 16.5813 15.1769 16.477ZM13.7558 15.0814C13.6558 14.8208 13.5292 14.5629 13.3673 14.3377C13.2976 14.2407 13.0979 14.174 12.9774 14.1973C12.8811 14.2161 12.7245 14.4282 12.7504 14.4915C12.8949 14.8481 13.0834 15.1868 13.2659 15.5268C13.2858 15.5632 13.3652 15.5676 13.3858 15.5753C13.6814 15.5901 13.8598 15.3521 13.7558 15.0814ZM17.2159 11.9708C17.3203 11.9115 17.4095 11.6694 17.3704 11.5577C17.3324 11.4499 17.1078 11.3253 16.988 11.3452C16.7018 11.392 16.4122 11.49 16.1584 11.6294C16.0547 11.6863 15.9719 11.9206 16.0028 12.0435C16.0328 12.1613 16.2217 12.2391 16.3126 12.3122C16.6708 12.1836 16.9641 12.1139 17.2159 11.9708ZM15.5045 17.1126C15.7678 17.2365 16.0415 17.3587 16.324 17.413C16.4409 17.4352 16.6634 17.3093 16.7055 17.1998C16.7482 17.0897 16.6685 16.8423 16.5681 16.785C16.3055 16.6355 16.0092 16.5133 15.7129 16.4696C15.5722 16.4487 15.4015 16.6322 15.1907 16.7541C15.347 16.9379 15.4062 17.0662 15.5045 17.1126ZM12.5427 11.4991C12.5094 11.6149 12.5723 11.8492 12.6609 11.8927C12.9602 12.0395 13.2848 12.1455 13.6103 12.2182C13.6972 12.2378 13.8908 12.098 13.914 12.0024C13.943 11.8812 13.8884 11.6553 13.7982 11.6058C13.5184 11.453 13.205 11.362 12.8494 11.226C12.7457 11.3122 12.5754 11.386 12.5427 11.4991ZM15.7049 11.9509C15.6779 11.4849 15.2611 11.6371 14.9726 11.6287C14.8328 11.6247 14.6669 11.6085 14.5588 11.6742C14.4248 11.7556 14.2474 11.924 14.2575 12.0398C14.2676 12.157 14.4709 12.2846 14.6153 12.3536C14.7184 12.4031 14.8642 12.363 15.0012 12.363C15.2904 12.324 15.7342 12.4529 15.7049 11.9509ZM13.1144 12.6441C13.0558 12.5233 12.8693 12.3835 12.7521 12.394C12.6346 12.4044 12.4609 12.5785 12.4397 12.7027C12.3989 12.9445 12.4037 13.2145 12.4734 13.4478C12.5222 13.6108 12.6989 13.8353 12.8383 13.8505C13.11 13.8801 13.1935 13.6428 13.1733 13.3875C13.1679 13.3182 13.1727 13.2482 13.1727 13.0909C13.1636 12.9973 13.1885 12.797 13.1144 12.6441ZM7.66044 17.0126C7.62441 16.042 7.3857 15.1312 6.80963 14.3155C6.10731 13.3209 5.5612 12.2391 5.24876 11.0567C4.7609 9.21096 4.91915 7.47771 6.36925 6.08922C8.52336 4.02668 11.0542 3.48125 13.8568 4.5004C16.3328 5.40103 17.4034 7.42518 16.8701 9.9611C16.8365 10.12 16.9146 10.3368 17.0095 10.482C17.4906 11.22 17.9947 11.9435 18.493 12.6758C18.3303 12.8118 18.2536 12.8994 18.158 12.9519C17.6098 13.2529 17.4065 13.6896 17.5459 14.3114C17.6519 14.7845 17.558 15.2228 17.2112 15.6013C17.1317 15.6881 17.1351 15.88 17.1503 16.0184C17.1896 16.3817 17.262 16.7409 17.3109 17.1032C17.3509 17.4015 17.2358 17.5887 16.9136 17.623C16.4385 17.6732 15.9644 17.7759 15.4897 17.7783C14.8773 17.7816 14.2642 17.7082 13.6356 17.6668C13.5955 18.2792 13.5558 18.8897 13.5157 19.5078H7.66684C7.66684 18.6419 7.69074 17.8261 7.66044 17.0126Z" fill="white"/>
<defs>
<linearGradient id="paint0_linear_1492_76558" x1="11.2984" y1="22.0598" x2="12.3881" y2="1.93905" gradientUnits="userSpaceOnUse">
<stop stop-color="#A63293"/>
<stop offset="0.02" stop-color="#A63293"/>
<stop offset="0.392435" stop-color="#CA2F7B"/>
<stop offset="0.39248" stop-color="#CA2F7B"/>
<stop offset="0.401499" stop-color="#CA2F7B"/>
<stop offset="1" stop-color="#EE2E64"/>
</linearGradient>
</defs>
</svg>
