<svg width="16" height="16" viewBox="0 0 16 16" fill="none" xmlns="http://www.w3.org/2000/svg">
<mask id="mask0_907_23425" style="mask-type:alpha" maskUnits="userSpaceOnUse" x="0" y="0" width="16" height="16">
<rect width="16" height="16" fill="#D9D9D9"/>
</mask>
<g mask="url(#mask0_907_23425)">
<path d="M3.31797 14.0002C3.12908 14.0002 2.97352 13.9363 2.8513 13.8085C2.72908 13.6807 2.66797 13.5224 2.66797 13.3335C2.66797 13.1446 2.73186 12.9863 2.85964 12.8585C2.98741 12.7307 3.14575 12.6668 3.33464 12.6668H10.018C10.2069 12.6668 10.3624 12.7307 10.4846 12.8585C10.6069 12.9863 10.668 13.1446 10.668 13.3335C10.668 13.5224 10.6041 13.6807 10.4763 13.8085C10.3485 13.9363 10.1902 14.0002 10.0013 14.0002H3.31797ZM5.48464 9.81684L3.6013 7.93351C3.34575 7.67796 3.21519 7.36407 3.20964 6.99184C3.20408 6.61962 3.32908 6.30573 3.58464 6.05018L4.06797 5.56684L7.86797 9.33351L7.38464 9.81684C7.12908 10.0724 6.81241 10.2002 6.43464 10.2002C6.05686 10.2002 5.74019 10.0724 5.48464 9.81684ZM10.668 6.53351L6.9013 2.73351L7.38464 2.25018C7.64019 1.99462 7.95408 1.86962 8.3263 1.87518C8.69852 1.88073 9.01241 2.01129 9.26797 2.26684L11.1513 4.15018C11.4069 4.40573 11.5346 4.7224 11.5346 5.10018C11.5346 5.47796 11.4069 5.79462 11.1513 6.05018L10.668 6.53351ZM13.268 12.8668L5.03464 4.63351L5.96797 3.70018L14.218 11.9502C14.3402 12.0724 14.3985 12.2252 14.393 12.4085C14.3874 12.5918 14.3235 12.7446 14.2013 12.8668C14.0791 12.9891 13.9235 13.0502 13.7346 13.0502C13.5457 13.0502 13.3902 12.9891 13.268 12.8668Z" fill="#1C1B1F"/>
</g>
</svg>
