<svg width="24" height="20" viewBox="0 0 24 20" fill="none" xmlns="http://www.w3.org/2000/svg">
<path d="M12.9104 0C12.242 0 11.5784 0.0332928 10.9271 0.0931873C8.90096 0.278542 5.92275 0.775412 4.45148 2.34543C4.41205 2.38761 4.37946 2.43689 4.34208 2.48119C3.47578 2.75408 2.59817 3.0461 1.86493 3.51356C0.167657 4.59486 -0.184558 6.05397 0.0781438 7.58643C0.391603 9.41906 1.58028 11.358 2.39342 12.8784C3.6795 15.2848 5.16003 17.5466 7.45164 18.9543C7.88308 19.2201 8.24764 19.369 8.56007 19.4275C8.96235 19.6777 9.38041 19.8737 9.7851 19.9531C10.1877 20.0328 10.5657 20.0062 10.9251 19.9091C11.6178 20.0179 12.2989 19.8489 12.9084 19.2336C14.38 18.461 15.3519 17.4903 16.4597 16.4561C18.4526 14.593 22.7967 12.1916 23.1253 9.01716C23.1493 8.78042 23.1534 8.5589 23.1462 8.3459C23.8335 7.21924 24.2035 6.0405 23.8836 4.9064C23.6802 4.18837 23.2004 3.48769 22.3533 2.8324C19.6988 0.775066 16.2601 0 12.9423 0H12.9104Z" fill="url(#paint0_linear_1378_74954)"/>
<path d="M10.6212 10.3585V10.5927C10.6212 11.3228 10.6202 12.0529 10.6216 12.783C10.6226 13.3351 10.9806 13.7342 11.4724 13.7352C11.9656 13.7363 12.3216 13.3429 12.3257 12.7872C12.3284 12.4434 12.325 12.0993 12.3247 11.7555C12.3247 11.2952 12.3247 10.8348 12.3247 10.3585H12.5538C13.2465 10.3585 13.9396 10.3641 14.632 10.3542C14.7912 10.3521 14.9609 10.3259 15.1057 10.2617C15.4527 10.1086 15.6506 9.69005 15.5762 9.32643C15.485 8.88058 15.1629 8.59422 14.7318 8.59174C14.0051 8.58749 13.2784 8.59033 12.5514 8.59033H12.3264C12.3264 7.76668 12.326 6.97388 12.3267 6.18107C12.3267 5.94362 12.2811 5.72141 12.1305 5.53286C11.8997 5.24331 11.5331 5.13734 11.1939 5.26139C10.8465 5.38826 10.6253 5.71184 10.6226 6.12224C10.6185 6.84523 10.6222 7.56822 10.6226 8.29121C10.6226 8.38654 10.6226 8.48188 10.6226 8.59139C10.4995 8.59139 10.4055 8.59139 10.3112 8.59139C9.61841 8.59103 8.92565 8.58643 8.23288 8.59174C7.64643 8.59635 7.24861 9.13469 7.39676 9.71096C7.49793 10.1036 7.83231 10.3556 8.27129 10.3574C9.04465 10.3609 9.81836 10.3585 10.6212 10.3585ZM11.4704 1.92004C15.485 1.9126 18.7574 5.29293 18.7674 9.45685C18.7773 13.6289 15.5145 17.0163 11.4793 17.0234C7.46124 17.0305 4.19666 13.6583 4.18363 9.48733C4.1706 5.31951 7.43689 1.92748 11.4704 1.92004Z" fill="white"/>
<defs>
<linearGradient id="paint0_linear_1378_74954" x1="11.2983" y1="20.0599" x2="12.388" y2="-0.0608585" gradientUnits="userSpaceOnUse">
<stop stop-color="#A63293"/>
<stop offset="0.02" stop-color="#A63293"/>
<stop offset="0.392435" stop-color="#CA2F7B"/>
<stop offset="0.39248" stop-color="#CA2F7B"/>
<stop offset="0.401499" stop-color="#CA2F7B"/>
<stop offset="1" stop-color="#EE2E64"/>
</linearGradient>
</defs>
</svg>
