<svg width="22" height="22" viewBox="0 0 22 22" fill="none" xmlns="http://www.w3.org/2000/svg">
<mask id="mask0_1470_77484" style="mask-type:alpha" maskUnits="userSpaceOnUse" x="0" y="0" width="22" height="22">
<rect width="22" height="22" fill="#D9D9D9"/>
</mask>
<g mask="url(#mask0_1470_77484)">
<path d="M7.97474 15.8594C7.80668 15.6913 7.72266 15.4774 7.72266 15.2177C7.72266 14.958 7.80668 14.7441 7.97474 14.576L11.5497 11.001L7.97474 7.42604C7.80668 7.25799 7.72266 7.0441 7.72266 6.78438C7.72266 6.52465 7.80668 6.31076 7.97474 6.14271C8.1428 5.97465 8.35668 5.89062 8.61641 5.89062C8.87613 5.89062 9.09002 5.97465 9.25807 6.14271L13.4747 10.3594C13.5664 10.451 13.6313 10.5503 13.6695 10.6573C13.7077 10.7642 13.7268 10.8788 13.7268 11.001C13.7268 11.1233 13.7077 11.2378 13.6695 11.3448C13.6313 11.4517 13.5664 11.551 13.4747 11.6427L9.25807 15.8594C9.09002 16.0274 8.87613 16.1115 8.61641 16.1115C8.35668 16.1115 8.1428 16.0274 7.97474 15.8594Z" fill="#58595B"/>
</g>
</svg>
