<svg width="26" height="26" viewBox="0 0 26 26" fill="none" xmlns="http://www.w3.org/2000/svg">
<mask id="mask0_1391_75335" style="mask-type:alpha" maskUnits="userSpaceOnUse" x="0" y="0" width="26" height="26">
<rect width="26" height="26" fill="#D9D9D9"/>
</mask>
<g mask="url(#mask0_1391_75335)">
<path d="M5.41797 22.7474V20.5807H10.8346V18.4141C9.33602 18.4141 8.05859 17.8859 7.00234 16.8297C5.94609 15.7734 5.41797 14.496 5.41797 12.9974C5.41797 11.896 5.7204 10.8939 6.32526 9.99115C6.93012 9.08837 7.74714 8.42934 8.7763 8.01406C8.92075 7.40017 9.24123 6.90365 9.73776 6.52448C10.2343 6.14531 10.7985 5.95573 11.4305 5.95573L10.8346 4.27656L11.8638 3.8974L11.4846 2.9224L13.543 2.16406L13.868 3.19323L14.8971 2.81406L17.8763 10.9391L16.8471 11.3182L17.2263 12.3474L15.168 13.1057L14.843 12.0766L13.8138 12.4557L13.1638 10.6682C12.893 10.921 12.5815 11.1106 12.2294 11.237C11.8773 11.3634 11.5207 11.4085 11.1596 11.3724C10.7624 11.3363 10.3923 11.2144 10.0492 11.0068C9.70616 10.7991 9.40825 10.5418 9.15547 10.2349C8.66797 10.5238 8.28429 10.912 8.00443 11.3995C7.72457 11.887 7.58464 12.4196 7.58464 12.9974C7.58464 13.9002 7.90061 14.6675 8.53255 15.2995C9.1645 15.9314 9.93186 16.2474 10.8346 16.2474H19.5013V18.4141H14.0846V20.5807H20.5846V22.7474H5.41797ZM14.7888 10.3432L15.7638 9.96406L13.9221 4.8724L12.893 5.25156L14.7888 10.3432ZM11.3763 9.7474C11.6832 9.7474 11.9405 9.64358 12.1482 9.43594C12.3558 9.2283 12.4596 8.97101 12.4596 8.66406C12.4596 8.35712 12.3558 8.09983 12.1482 7.89219C11.9405 7.68455 11.6832 7.58073 11.3763 7.58073C11.0694 7.58073 10.8121 7.68455 10.6044 7.89219C10.3968 8.09983 10.293 8.35712 10.293 8.66406C10.293 8.97101 10.3968 9.2283 10.6044 9.43594C10.8121 9.64358 11.0694 9.7474 11.3763 9.7474Z" fill="#FDB913"/>
</g>
</svg>
