<svg width="26" height="26" viewBox="0 0 26 26" fill="none" xmlns="http://www.w3.org/2000/svg">
<path d="M5.24678 23C4.30532 23 3.63614 22.5787 3.23925 21.7361C2.84236 20.8935 2.93927 20.1111 3.52999 19.3889L9.67719 11.8889V5.22222H8.56959C8.25577 5.22222 7.99271 5.11574 7.78042 4.90278C7.56813 4.68981 7.46198 4.42593 7.46198 4.11111C7.46198 3.7963 7.56813 3.53241 7.78042 3.31944C7.99271 3.10648 8.25577 3 8.56959 3H17.4304C17.7442 3 18.0073 3.10648 18.2196 3.31944C18.4319 3.53241 18.538 3.7963 18.538 4.11111C18.538 4.42593 18.4319 4.68981 18.2196 4.90278C18.0073 5.11574 17.7442 5.22222 17.4304 5.22222H16.3228V11.8889L22.47 19.3889C23.0607 20.1111 23.1576 20.8935 22.7608 21.7361C22.3639 22.5787 21.6947 23 20.7532 23H5.24678ZM5.24678 20.7778H20.7532L14.1076 12.6667V5.22222H11.8924V12.6667L5.24678 20.7778Z" fill="#FDB913"/>
</svg>
