<svg width="24" height="24" viewBox="0 0 24 24" fill="none" xmlns="http://www.w3.org/2000/svg">
<mask id="mask0_892_25984" style="mask-type:alpha" maskUnits="userSpaceOnUse" x="0" y="0" width="24" height="24">
<rect width="24" height="24" fill="#972168"/>
</mask>
<g mask="url(#mask0_892_25984)">
<path d="M12 21.2593C10.2333 21.2593 8.79167 20.9904 7.675 20.4528C6.55833 19.9151 6 19.221 6 18.3704C6 17.8086 6.24167 17.3191 6.725 16.9019C7.20833 16.4846 7.875 16.1556 8.725 15.9148L9.3 17.7444C9.01667 17.8247 8.75833 17.925 8.525 18.0454C8.29167 18.1657 8.13333 18.2741 8.05 18.3704C8.26667 18.6272 8.76667 18.8519 9.55 19.0444C10.3333 19.237 11.15 19.3333 12 19.3333C12.85 19.3333 13.6708 19.237 14.4625 19.0444C15.2542 18.8519 15.7583 18.6272 15.975 18.3704C15.8917 18.2741 15.7333 18.1657 15.5 18.0454C15.2667 17.925 15.0083 17.8247 14.725 17.7444L15.3 15.9148C16.15 16.1556 16.8125 16.4846 17.2875 16.9019C17.7625 17.3191 18 17.8086 18 18.3704C18 19.221 17.4417 19.9151 16.325 20.4528C15.2083 20.9904 13.7667 21.2593 12 21.2593ZM12 18.3704C11.8167 18.3704 11.65 18.3182 11.5 18.2139C11.35 18.1096 11.2417 17.9691 11.175 17.7926C10.7917 16.6531 10.3083 15.6981 9.725 14.9278C9.14167 14.1574 8.575 13.4191 8.025 12.713C7.49167 12.0068 7.02917 11.2765 6.6375 10.5222C6.24583 9.7679 6.05 8.83704 6.05 7.72963C6.05 6.12469 6.625 4.76852 7.775 3.66111C8.925 2.5537 10.3333 2 12 2C13.6667 2 15.075 2.5537 16.225 3.66111C17.375 4.76852 17.95 6.12469 17.95 7.72963C17.95 8.83704 17.7583 9.7679 17.375 10.5222C16.9917 11.2765 16.525 12.0068 15.975 12.713C15.4417 13.4191 14.8792 14.1574 14.2875 14.9278C13.6958 15.6981 13.2083 16.6531 12.825 17.7926C12.7583 17.9691 12.65 18.1096 12.5 18.2139C12.35 18.3182 12.1833 18.3704 12 18.3704ZM12 9.77593C12.5833 9.77593 13.0833 9.57531 13.5 9.17407C13.9167 8.77284 14.125 8.29136 14.125 7.72963C14.125 7.1679 13.9167 6.68642 13.5 6.28519C13.0833 5.88395 12.5833 5.68333 12 5.68333C11.4167 5.68333 10.9167 5.88395 10.5 6.28519C10.0833 6.68642 9.875 7.1679 9.875 7.72963C9.875 8.29136 10.0833 8.77284 10.5 9.17407C10.9167 9.57531 11.4167 9.77593 12 9.77593Z" fill="#972168"/>
</g>
</svg>
