<svg width="16" height="16" viewBox="0 0 16 16" fill="none" xmlns="http://www.w3.org/2000/svg">
<mask id="mask0_907_23404" style="mask-type:alpha" maskUnits="userSpaceOnUse" x="0" y="0" width="16" height="16">
<rect width="16" height="16" fill="#D9D9D9"/>
</mask>
<g mask="url(#mask0_907_23404)">
<path d="M7.99556 8.02031C8.37196 8.02031 8.69349 7.88629 8.96016 7.61825C9.22682 7.3502 9.36016 7.02798 9.36016 6.65158C9.36016 6.27518 9.22613 5.95365 8.95809 5.68698C8.69004 5.42031 8.36782 5.28698 7.99142 5.28698C7.61502 5.28698 7.29349 5.421 7.02682 5.68905C6.76016 5.95709 6.62682 6.27931 6.62682 6.65571C6.62682 7.03211 6.76084 7.35365 7.02889 7.62031C7.29693 7.88698 7.61916 8.02031 7.99556 8.02031ZM7.99349 14.6536C6.2046 13.1092 4.86849 11.6925 3.98516 10.4036C3.10182 9.11476 2.66016 7.91031 2.66016 6.79031C2.66016 5.11031 3.19349 3.77865 4.26016 2.79531C5.32682 1.81198 6.57127 1.32031 7.99349 1.32031C9.41571 1.32031 10.6602 1.81198 11.7268 2.79531C12.7935 3.77865 13.3268 5.11031 13.3268 6.79031C13.3268 7.91031 12.8852 9.11476 12.0018 10.4036C11.1185 11.6925 9.78238 13.1092 7.99349 14.6536Z" fill="#972168"/>
</g>
</svg>
