<svg width="24" height="24" viewBox="0 0 24 24" fill="none" xmlns="http://www.w3.org/2000/svg">
<mask id="mask0_892_25918" style="mask-type:alpha" maskUnits="userSpaceOnUse" x="0" y="0" width="24" height="24">
<rect width="24" height="24" fill="#D9D9D9"/>
</mask>
<g mask="url(#mask0_892_25918)">
<path d="M4.00391 19V17H6.00391V10C6.00391 8.61667 6.42057 7.38733 7.25391 6.312C8.08724 5.23733 9.17057 4.53333 10.5039 4.2V3.5C10.5039 3.08333 10.6499 2.72933 10.9419 2.438C11.2332 2.146 11.5872 2 12.0039 2C12.4206 2 12.7746 2.146 13.0659 2.438C13.3579 2.72933 13.5039 3.08333 13.5039 3.5V4.2C14.8372 4.53333 15.9206 5.23733 16.7539 6.312C17.5872 7.38733 18.0039 8.61667 18.0039 10V17H20.0039V19H4.00391ZM12.0039 22C11.4539 22 10.9832 21.8043 10.5919 21.413C10.1999 21.021 10.0039 20.55 10.0039 20H14.0039C14.0039 20.55 13.8082 21.021 13.4169 21.413C13.0249 21.8043 12.5539 22 12.0039 22Z" fill="#962067"/>
</g>
</svg>
