<svg width="16" height="16" viewBox="0 0 16 16" fill="none" xmlns="http://www.w3.org/2000/svg">
<mask id="mask0_907_23424" style="mask-type:alpha" maskUnits="userSpaceOnUse" x="0" y="0" width="16" height="16">
<rect width="16" height="16" fill="#D9D9D9"/>
</mask>
<g mask="url(#mask0_907_23424)">
<path d="M8.0013 9.33594C8.36797 9.33594 8.68186 9.20538 8.94297 8.94427C9.20408 8.68316 9.33464 8.36927 9.33464 8.0026C9.33464 7.63594 9.20408 7.32205 8.94297 7.06094C8.68186 6.79983 8.36797 6.66927 8.0013 6.66927C7.63464 6.66927 7.32075 6.79983 7.05964 7.06094C6.79852 7.32205 6.66797 7.63594 6.66797 8.0026C6.66797 8.36927 6.79852 8.68316 7.05964 8.94427C7.32075 9.20538 7.63464 9.33594 8.0013 9.33594ZM8.0013 14.6693C6.45686 14.2804 5.18186 13.3943 4.1763 12.0109C3.17075 10.6276 2.66797 9.09149 2.66797 7.4026V3.33594L8.0013 1.33594L13.3346 3.33594V7.4026C13.3346 8.12483 13.2402 8.81371 13.0513 9.46927C12.8624 10.1248 12.6013 10.747 12.268 11.3359L10.3013 9.36927C10.4235 9.15816 10.5152 8.93871 10.5763 8.71094C10.6374 8.48316 10.668 8.24705 10.668 8.0026C10.668 7.26927 10.4069 6.64149 9.88464 6.11927C9.36241 5.59705 8.73464 5.33594 8.0013 5.33594C7.26797 5.33594 6.64019 5.59705 6.11797 6.11927C5.59575 6.64149 5.33464 7.26927 5.33464 8.0026C5.33464 8.73594 5.59575 9.36371 6.11797 9.88594C6.64019 10.4082 7.26797 10.6693 8.0013 10.6693C8.23464 10.6693 8.46519 10.6387 8.69297 10.5776C8.92075 10.5165 9.13464 10.4248 9.33464 10.3026L11.4846 12.4526C11.0069 12.9859 10.4874 13.4415 9.9263 13.8193C9.36519 14.197 8.72352 14.4804 8.0013 14.6693Z" fill="#5A5A5A"/>
</g>
</svg>
